<svg width="255" height="89" viewBox="0 0 255 89" fill="none" xmlns="http://www.w3.org/2000/svg">
<path d="M140.411 80.7041V75.2992H154.39C155.014 75.2992 155.575 75.1705 156.074 74.9131C156.572 74.6558 156.962 74.3212 157.243 73.9094C157.554 73.4976 157.71 73.0471 157.71 72.5581C157.71 72.0434 157.554 71.5801 157.243 71.1683C156.962 70.7565 156.572 70.4219 156.074 70.1645C155.575 69.9071 155.014 69.7785 154.39 69.7785H149.341C147.439 69.7785 145.71 69.4696 144.151 68.8519C142.593 68.2342 141.346 67.3334 140.411 66.1494C139.507 64.9398 139.055 63.4984 139.055 61.8255C139.055 60.1783 139.491 58.7498 140.364 57.5401C141.237 56.3305 142.421 55.391 143.917 54.7219C145.413 54.0269 147.065 53.6795 148.873 53.6795H163.321V59.0844H149.762C149.201 59.0844 148.686 59.2002 148.219 59.4319C147.751 59.6635 147.393 59.9724 147.143 60.3584C146.894 60.7445 146.769 61.1692 146.769 61.6325C146.769 62.0957 146.894 62.5204 147.143 62.9065C147.393 63.2668 147.751 63.5628 148.219 63.7944C148.686 64.0261 149.201 64.1419 149.762 64.1419H155.045C157.133 64.1419 158.941 64.4765 160.469 65.1457C162.027 65.7891 163.227 66.7028 164.069 67.8867C164.942 69.0449 165.378 70.409 165.378 71.979C165.378 73.8321 164.926 75.415 164.022 76.7276C163.149 78.0145 161.965 79.0054 160.469 79.7004C158.973 80.3695 157.32 80.7041 155.513 80.7041H140.411Z" fill="#4A4B5C"/>
<path d="M180.738 81.1674C178.618 81.1674 176.748 80.717 175.127 79.8162C173.506 78.9154 172.244 77.7057 171.34 76.1872C170.436 74.6429 169.984 72.9056 169.984 70.9753C169.984 68.9677 170.514 67.1789 171.574 65.6089C172.633 64.0132 174.13 62.752 176.062 61.8255C178.026 60.8989 180.333 60.4356 182.982 60.4356C185.663 60.4356 187.938 60.8989 189.808 61.8255C191.71 62.7263 193.159 63.9746 194.157 65.5703C195.185 67.1403 195.699 68.9034 195.699 70.8594V80.7041H188.593V77.5384H188.406C187.969 78.2333 187.408 78.8639 186.722 79.4301C186.037 79.9706 185.195 80.3953 184.198 80.7041C183.231 81.013 182.078 81.1674 180.738 81.1674ZM182.888 75.9941C183.979 75.9941 184.93 75.7754 185.741 75.3378C186.582 74.8745 187.221 74.244 187.658 73.4461C188.094 72.6482 188.312 71.7603 188.312 70.7822C188.312 69.8299 188.094 68.9677 187.658 68.1956C187.221 67.4234 186.582 66.8186 185.741 66.3811C184.93 65.9178 183.979 65.6861 182.888 65.6861C181.766 65.6861 180.785 65.9178 179.943 66.3811C179.101 66.8186 178.462 67.4234 178.026 68.1956C177.59 68.9677 177.371 69.8299 177.371 70.7822C177.371 71.7603 177.59 72.6482 178.026 73.4461C178.462 74.244 179.101 74.8745 179.943 75.3378C180.785 75.7754 181.766 75.9941 182.888 75.9941Z" fill="#4A4B5C"/>
<path d="M202.586 80.7041V52.5213H209.833V80.7041H202.586Z" fill="#4A4B5C"/>
<path d="M216.714 80.7041V60.8989H224.008V80.7041H216.714ZM220.361 58.6597C219.208 58.6597 218.21 58.3123 217.369 57.6174C216.527 56.9224 216.106 56.0988 216.106 55.1465C216.106 54.1942 216.527 53.3706 217.369 52.6757C218.21 51.9551 219.208 51.5947 220.361 51.5947C221.515 51.5947 222.512 51.9551 223.354 52.6757C224.195 53.3706 224.616 54.1942 224.616 55.1465C224.616 56.0988 224.195 56.9224 223.354 57.6174C222.512 58.3123 221.515 58.6597 220.361 58.6597Z" fill="#4A4B5C"/>
<path d="M230.843 80.7041V52.5213H238.09V68.3886H241.27L246.74 60.8989H254.829L248.376 69.1607C250.247 69.8042 251.696 70.7951 252.725 72.1335C253.784 73.4461 254.314 74.9904 254.314 76.7663V80.7041H247.02V76.7663C247.02 76.0456 246.802 75.4022 246.366 74.8359C245.961 74.244 245.415 73.7807 244.729 73.4461C244.044 73.1115 243.264 72.9442 242.392 72.9442H238.09V80.7041H230.843Z" fill="#4A4B5C"/>
<path d="M139.121 18.0658C140.007 17.9855 140.624 17.8938 141.245 17.8823C142.492 17.8594 143.739 17.8766 145.33 17.8766C145.33 19.9346 145.326 21.8092 145.33 23.678C145.347 28.3558 146.569 30.7292 149.877 32.0591C153.739 33.6127 157.644 32.9993 161.489 31.9387C164.013 31.2451 166.464 30.0699 168.966 29.2215C170.423 28.7285 170.952 27.6966 170.927 25.587C170.835 18.232 170.889 10.8713 170.893 3.51066C170.893 2.47879 170.893 1.44692 170.893 0.214403H177.527C177.527 4.66865 177.527 9.03691 177.527 13.4052C177.527 17.6129 177.501 21.8149 177.539 26.0227C177.573 30.0928 179.332 32.6496 182.082 32.747C185.021 32.8502 187.023 30.4884 187.09 26.338C187.212 19.0805 187.136 11.8115 187.153 4.54827C187.166 -0.903459 186.973 0.116948 190.562 0.0252263C191.595 -0.00343683 192.632 0.0252263 193.938 0.0252263V3.32148C193.938 10.2006 193.908 17.0855 193.946 23.9647C193.98 30.5342 192.141 35.7051 187.854 38.8695C183.568 42.0339 179.16 41.7014 175.087 38.2905C173.501 36.9605 172.317 36.9261 170.705 37.7287C163.786 41.174 156.695 43.0027 149.323 41.1224C143.508 39.6319 139.537 34.8108 139.159 28.6367C138.949 25.2316 139.121 21.7805 139.121 18.0715V18.0658Z" fill="#4A4B5C"/>
<path d="M223.774 21.9645C223.774 23.7187 223.749 25.0486 223.779 26.3729C223.867 30.2768 225.508 32.696 228.073 32.7475C230.655 32.7934 232.339 30.4946 232.511 26.5678C232.591 24.7563 232.595 22.9333 232.528 21.1275C232.469 19.5339 232.864 18.6625 234.064 18.3415C235.76 17.8943 237.431 17.258 239.312 16.6389C239.312 19.9179 239.283 22.9677 239.32 26.0117C239.375 30.2137 241.101 32.7705 243.813 32.7475C246.537 32.7303 248.191 30.1851 248.217 25.9372C248.238 22.4976 248.284 19.058 248.196 15.6242C248.154 13.9617 248.561 13.228 249.753 12.9241C251.382 12.5114 252.973 11.8579 254.993 11.1642C254.993 14.4891 255.009 17.4128 254.993 20.3364C254.972 23.776 255.03 27.2213 254.854 30.6437C254.568 36.0725 252.129 39.5866 248.2 40.521C244.199 41.4726 240.383 41.1745 237.184 37.2018C231.877 41.7076 226.684 43.0261 221.587 36.6343C218.006 40.7274 213.841 41.5357 209.391 40.607C204.45 39.5694 200.974 34.6221 200.797 27.8347C200.579 19.3447 200.638 10.8375 200.541 2.33599C200.52 0.644865 200.94 -0.0889105 202.242 0.00854404C203.837 0.128929 205.441 0.0372072 207.271 0.0372072C207.309 1.21239 207.372 2.2156 207.372 3.22454C207.38 10.5795 207.363 17.9345 207.38 25.2894C207.393 29.6577 209.039 32.4609 211.696 32.7303C214.727 33.0399 216.671 30.7526 217.028 26.0977C217.145 24.5614 217.557 23.9078 218.569 23.6155C220.197 23.1397 221.818 22.5951 223.774 21.976V21.9645Z" fill="#4A4B5C"/>
<path d="M162.635 13.1647C163.311 17.5845 163.244 17.7336 160.259 18.7368C157.9 19.5336 155.536 20.3304 153.042 21.1731C152.832 18.9661 152.047 16.8393 154.251 15.687C152.866 13.3137 152.32 10.7971 153.769 8.14289C155.372 5.20205 157.69 4.3135 160.104 5.1046C161.002 5.39696 161.582 7.4951 162.509 9.12317C160.612 9.60471 159.273 9.70216 158.089 10.3442C157.493 10.6652 156.426 11.485 156.741 12.8264C157.056 14.1679 158.114 14.2539 158.781 14.2252C160.074 14.1621 161.355 13.5488 162.64 13.1647H162.635Z" fill="#4A4B5C"/>
<g clip-path="url(#clip0_45_2092)">
<path d="M117.705 0.0974976L51.6323 23.2168L112.236 44.2394C117.191 38.2016 120.081 30.5467 120.113 22.3797L120.179 1.88528C120.179 0.601327 118.921 -0.30069 117.697 0.0974976H117.705Z" fill="#4D4E62"/>
<path d="M7.20809 42.8743C2.6612 48.1726 0 55.0149 0 62.3123V82.5061V86.5449C0 87.6013 1.03672 88.3408 2.04896 88.0157L69.4034 64.4495L7.20809 42.8743Z" fill="#4D4E62"/>
<path d="M18.7999 34.5692C14.2285 36.4057 10.2938 39.2906 7.21631 42.8743L69.4034 64.4414L98.3745 54.4217C103.893 52.187 108.619 48.6439 112.244 44.2314L51.6322 23.2168L18.7999 34.5692Z" fill="#B5C3CD"/>
</g>
<defs>
<clipPath id="clip0_45_2092">
<rect width="120.178" height="88.0888" fill="white"/>
</clipPath>
</defs>
</svg>
