<svg width="196" height="196" viewBox="0 0 196 196" fill="none" xmlns="http://www.w3.org/2000/svg">
<path d="M127.346 78.738C127.346 81.9734 126.708 85.0811 125.431 88.0611C124.153 91.0411 122.493 93.936 120.45 96.7457C118.406 99.4703 116.107 102.11 113.553 104.664C110.999 107.218 108.487 109.645 106.018 111.944C104.741 113.136 103.336 114.498 101.803 116.031C100.356 117.478 98.9511 118.968 97.5889 120.501C96.2266 122.033 94.992 123.481 93.8851 124.843C92.8634 126.12 92.2249 127.184 91.9694 128.036H130.028V144H71.0243C70.854 143.063 70.7689 141.871 70.7689 140.424C70.7689 138.977 70.7689 137.955 70.7689 137.359C70.7689 133.272 71.4074 129.526 72.6846 126.12C74.0469 122.714 75.7923 119.564 77.9209 116.669C80.0494 113.689 82.4334 110.922 85.0729 108.368C87.7974 105.813 90.4794 103.259 93.1189 100.705C95.1623 98.7466 97.078 96.916 98.866 95.2131C100.654 93.4251 102.229 91.7223 103.591 90.1046C104.954 88.4017 106.018 86.7414 106.784 85.1237C107.551 83.4209 107.934 81.718 107.934 80.0151C107.934 76.2689 106.869 73.6294 104.741 72.0969C102.612 70.5643 99.9729 69.798 96.8226 69.798C94.5237 69.798 92.3526 70.1811 90.3091 70.9474C88.3509 71.6286 86.5203 72.48 84.8174 73.5017C83.1997 74.4383 81.7949 75.4174 80.6029 76.4391C79.4109 77.3757 78.5169 78.142 77.9209 78.738L68.47 65.4557C72.2163 61.9649 76.5586 59.1126 81.4969 56.8989C86.5203 54.6 91.8843 53.4506 97.5889 53.4506C102.783 53.4506 107.253 54.0466 110.999 55.2386C114.745 56.4306 117.81 58.1334 120.194 60.3471C122.663 62.4757 124.451 65.1151 125.558 68.2654C126.75 71.3306 127.346 74.8214 127.346 78.738Z" fill="#FF7A00"/>
<circle cx="97.9996" cy="98.0001" r="80.6549" fill="url(#paint0_linear_101_12)"/>
<circle cx="98" cy="98" r="97.5" transform="rotate(-180 98 98)" stroke="url(#paint1_linear_101_12)"/>
<defs>
<linearGradient id="paint0_linear_101_12" x1="97.9996" y1="278.698" x2="97.9996" y2="55.346" gradientUnits="userSpaceOnUse">
<stop stop-color="#F3F3F3"/>
<stop offset="1" stop-color="#F3F3F3" stop-opacity="0"/>
</linearGradient>
<linearGradient id="paint1_linear_101_12" x1="98" y1="2.28882e-05" x2="98" y2="196" gradientUnits="userSpaceOnUse">
<stop stop-color="#B1B1B1"/>
<stop offset="1" stop-color="#C4C4C4" stop-opacity="0"/>
</linearGradient>
</defs>
</svg>
