<svg width="196" height="196" viewBox="0 0 196 196" fill="none" xmlns="http://www.w3.org/2000/svg">
<path d="M91.1189 145.916C88.82 145.916 86.3934 145.745 83.8391 145.405C81.2849 145.149 78.8157 144.766 76.4317 144.255C74.0477 143.745 71.8766 143.191 69.9183 142.595C67.96 141.999 66.4274 141.446 65.3206 140.935L69.0243 125.098C71.238 126.035 74.0477 127.057 77.4534 128.163C80.9443 129.185 85.244 129.696 90.3526 129.696C96.2274 129.696 100.527 128.589 103.252 126.375C105.976 124.162 107.339 121.182 107.339 117.435C107.339 115.137 106.828 113.221 105.806 111.688C104.869 110.071 103.55 108.793 101.847 107.857C100.144 106.835 98.1006 106.154 95.7166 105.813C93.4177 105.388 90.9486 105.175 88.3091 105.175H80.9017V89.8491H89.3309C91.204 89.8491 92.992 89.6789 94.6949 89.3383C96.4829 88.9977 98.058 88.4443 99.4203 87.678C100.783 86.8266 101.847 85.7197 102.613 84.3574C103.465 82.91 103.89 81.122 103.89 78.9934C103.89 77.3757 103.55 75.9709 102.869 74.7788C102.187 73.5868 101.293 72.6077 100.187 71.8414C99.1649 71.0751 97.9303 70.5217 96.4829 70.1811C95.1206 69.7554 93.7157 69.5426 92.2683 69.5426C88.6071 69.5426 85.2014 70.096 82.0511 71.2028C78.986 72.3097 76.1763 73.672 73.622 75.2897L66.8531 61.3689C68.2154 60.5174 69.7906 59.6234 71.5786 58.6869C73.4517 57.7503 75.4951 56.8989 77.7089 56.1326C79.9226 55.3663 82.264 54.7277 84.7331 54.2169C87.2874 53.706 89.9694 53.4506 92.7791 53.4506C97.9729 53.4506 102.443 54.0891 106.189 55.3663C110.021 56.5583 113.171 58.3037 115.64 60.6026C118.109 62.8163 119.94 65.4557 121.132 68.5209C122.324 71.5009 122.92 74.7789 122.92 78.3549C122.92 81.8457 121.941 85.2514 119.982 88.572C118.024 91.8074 115.385 94.2766 112.064 95.9794C116.662 97.8526 120.195 100.662 122.664 104.409C125.219 108.07 126.496 112.497 126.496 117.691C126.496 121.778 125.815 125.567 124.452 129.057C123.09 132.463 120.961 135.443 118.067 137.997C115.172 140.467 111.468 142.425 106.955 143.872C102.528 145.235 97.2491 145.916 91.1189 145.916Z" fill="#FF7A00"/>
<circle cx="97.9996" cy="98.0001" r="80.6549" fill="url(#paint0_linear_101_13)"/>
<circle cx="98" cy="98" r="97.5" transform="rotate(-180 98 98)" stroke="url(#paint1_linear_101_13)"/>
<defs>
<linearGradient id="paint0_linear_101_13" x1="97.9996" y1="278.698" x2="97.9996" y2="55.346" gradientUnits="userSpaceOnUse">
<stop stop-color="#F3F3F3"/>
<stop offset="1" stop-color="#F3F3F3" stop-opacity="0"/>
</linearGradient>
<linearGradient id="paint1_linear_101_13" x1="98" y1="2.28882e-05" x2="98" y2="196" gradientUnits="userSpaceOnUse">
<stop stop-color="#B1B1B1"/>
<stop offset="1" stop-color="#C4C4C4" stop-opacity="0"/>
</linearGradient>
</defs>
</svg>
