<svg width="87" height="86" viewBox="0 0 87 86" fill="none" xmlns="http://www.w3.org/2000/svg">
<rect x="0.5" width="86" height="86" rx="30" fill="#94C8DD"/>
<path d="M32.0598 58V53.59L43.3998 42.88C44.2958 42.068 44.9538 41.34 45.3738 40.696C45.7938 40.052 46.0738 39.464 46.2138 38.932C46.3818 38.4 46.4658 37.91 46.4658 37.462C46.4658 36.286 46.0598 35.39 45.2478 34.774C44.4638 34.13 43.3018 33.808 41.7618 33.808C40.5298 33.808 39.3818 34.046 38.3178 34.522C37.2818 34.998 36.3998 35.74 35.6718 36.748L30.7158 33.556C31.8358 31.876 33.4038 30.546 35.4198 29.566C37.4358 28.586 39.7598 28.096 42.3918 28.096C44.5758 28.096 46.4798 28.46 48.1038 29.188C49.7558 29.888 51.0298 30.882 51.9258 32.17C52.8498 33.458 53.3118 34.998 53.3118 36.79C53.3118 37.742 53.1858 38.694 52.9338 39.646C52.7098 40.57 52.2338 41.55 51.5058 42.586C50.8058 43.622 49.7698 44.784 48.3978 46.072L38.9898 54.934L37.6878 52.456H54.2778V58H32.0598Z" fill="white"/>
</svg>
