<svg width="87" height="86" viewBox="0 0 87 86" fill="none" xmlns="http://www.w3.org/2000/svg">
<rect x="0.5" width="86" height="86" rx="30" fill="#94C8DD"/>
<path d="M42.3048 58.504C40.2608 58.504 38.2308 58.238 36.2148 57.706C34.1988 57.146 32.4908 56.362 31.0908 55.354L33.7368 50.146C34.8568 50.958 36.1588 51.602 37.6428 52.078C39.1268 52.554 40.6248 52.792 42.1368 52.792C43.8448 52.792 45.1888 52.456 46.1688 51.784C47.1488 51.112 47.6388 50.188 47.6388 49.012C47.6388 47.892 47.2048 47.01 46.3368 46.366C45.4688 45.722 44.0688 45.4 42.1368 45.4H39.0288V40.906L47.2188 31.624L47.9748 34.06H32.5608V28.6H53.1408V33.01L44.9928 42.292L41.5488 40.318H43.5228C47.1348 40.318 49.8648 41.13 51.7128 42.754C53.5608 44.378 54.4848 46.464 54.4848 49.012C54.4848 50.664 54.0508 52.218 53.1828 53.674C52.3148 55.102 50.9848 56.264 49.1928 57.16C47.4008 58.056 45.1048 58.504 42.3048 58.504Z" fill="white"/>
</svg>
